<mxfile host="app.diagrams.net" agent="Mozilla/5.0 (Windows NT 10.0; Win64; x64) AppleWebKit/537.36 (KHTML, like Gecko) Chrome/131.0.0.0 Safari/537.36" version="26.0.7">
  <diagram name="Halaman-1" id="N9N65BdSsmJdeMf5tDcb">
    <mxGraphModel dx="2036" dy="482" grid="1" gridSize="10" guides="1" tooltips="1" connect="1" arrows="1" fold="1" page="1" pageScale="1" pageWidth="827" pageHeight="1169" math="0" shadow="0">
      <root>
        <mxCell id="0" />
        <mxCell id="1" parent="0" />
        <mxCell id="s2pgU0iyRGViIAJ1WeOT-50" value="" style="rounded=0;whiteSpace=wrap;html=1;" parent="1" vertex="1">
          <mxGeometry x="-540" y="100" width="1310" height="590" as="geometry" />
        </mxCell>
        <mxCell id="TOVer-EQaKdzY2mr5Bsl-2" value="Pak&lt;div&gt;Jumali&lt;/div&gt;&lt;div&gt;ID : 4&lt;/div&gt;" style="whiteSpace=wrap;html=1;aspect=fixed;" parent="1" vertex="1">
          <mxGeometry x="130" y="220" width="80" height="80" as="geometry" />
        </mxCell>
        <mxCell id="TOVer-EQaKdzY2mr5Bsl-3" value="Pak&lt;div&gt;Sumanto&lt;/div&gt;&lt;div&gt;ID : 6&lt;/div&gt;" style="whiteSpace=wrap;html=1;aspect=fixed;" parent="1" vertex="1">
          <mxGeometry x="-60" y="120" width="80" height="80" as="geometry" />
        </mxCell>
        <mxCell id="TOVer-EQaKdzY2mr5Bsl-4" value="Pak&lt;div&gt;Sunarno&lt;/div&gt;&lt;div&gt;ID :&amp;nbsp;&lt;span style=&quot;background-color: transparent; color: light-dark(rgb(0, 0, 0), rgb(255, 255, 255));&quot;&gt;2&lt;/span&gt;&lt;/div&gt;" style="whiteSpace=wrap;html=1;aspect=fixed;" parent="1" vertex="1">
          <mxGeometry x="250" y="350" width="80" height="80" as="geometry" />
        </mxCell>
        <mxCell id="TOVer-EQaKdzY2mr5Bsl-5" value="Pak&lt;div&gt;Maryono&lt;/div&gt;&lt;div&gt;ID :10&lt;/div&gt;" style="whiteSpace=wrap;html=1;aspect=fixed;" parent="1" vertex="1">
          <mxGeometry x="260" y="110" width="80" height="80" as="geometry" />
        </mxCell>
        <mxCell id="TOVer-EQaKdzY2mr5Bsl-6" value="Pak&lt;div&gt;Suwarno&lt;/div&gt;&lt;div&gt;ID : 12&lt;/div&gt;" style="whiteSpace=wrap;html=1;aspect=fixed;" parent="1" vertex="1">
          <mxGeometry x="-510" y="480" width="80" height="80" as="geometry" />
        </mxCell>
        <mxCell id="TOVer-EQaKdzY2mr5Bsl-7" value="Pak&lt;div&gt;Handoko&lt;/div&gt;&lt;div&gt;ID : 1&lt;span style=&quot;background-color: transparent; color: light-dark(rgb(0, 0, 0), rgb(255, 255, 255));&quot;&gt;&amp;nbsp;&lt;/span&gt;&lt;/div&gt;" style="whiteSpace=wrap;html=1;aspect=fixed;" parent="1" vertex="1">
          <mxGeometry y="480" width="80" height="80" as="geometry" />
        </mxCell>
        <mxCell id="TOVer-EQaKdzY2mr5Bsl-8" value="Pak&lt;div&gt;Widodo&lt;/div&gt;&lt;div&gt;ID : 11&lt;/div&gt;" style="whiteSpace=wrap;html=1;aspect=fixed;" parent="1" vertex="1">
          <mxGeometry x="-250" y="190" width="80" height="80" as="geometry" />
        </mxCell>
        <mxCell id="TOVer-EQaKdzY2mr5Bsl-9" value="Pak&lt;div&gt;Purwoadi&lt;/div&gt;&lt;div&gt;ID : 9&lt;/div&gt;" style="whiteSpace=wrap;html=1;aspect=fixed;" parent="1" vertex="1">
          <mxGeometry x="510" y="290" width="80" height="80" as="geometry" />
        </mxCell>
        <mxCell id="TOVer-EQaKdzY2mr5Bsl-10" value="Pak&lt;div&gt;Wirawan&lt;/div&gt;&lt;div&gt;ID : 13&lt;/div&gt;" style="whiteSpace=wrap;html=1;aspect=fixed;" parent="1" vertex="1">
          <mxGeometry x="-510" y="120" width="80" height="80" as="geometry" />
        </mxCell>
        <mxCell id="TOVer-EQaKdzY2mr5Bsl-11" value="Pak&lt;br&gt;Hadi&lt;div&gt;ID : 7&lt;/div&gt;" style="whiteSpace=wrap;html=1;aspect=fixed;" parent="1" vertex="1">
          <mxGeometry x="640" y="110" width="80" height="80" as="geometry" />
        </mxCell>
        <mxCell id="TOVer-EQaKdzY2mr5Bsl-12" value="Pak&lt;div&gt;Basuki&lt;/div&gt;&lt;div&gt;ID : 14&lt;/div&gt;" style="whiteSpace=wrap;html=1;aspect=fixed;" parent="1" vertex="1">
          <mxGeometry x="-510" y="310" width="80" height="80" as="geometry" />
        </mxCell>
        <mxCell id="TOVer-EQaKdzY2mr5Bsl-13" value="Pak&lt;div&gt;Sutrisno&lt;/div&gt;&lt;div&gt;ID : 3&lt;/div&gt;" style="whiteSpace=wrap;html=1;aspect=fixed;" parent="1" vertex="1">
          <mxGeometry x="-260" y="480" width="80" height="80" as="geometry" />
        </mxCell>
        <mxCell id="TOVer-EQaKdzY2mr5Bsl-14" value="Pak&lt;div&gt;Joko&lt;/div&gt;&lt;div&gt;ID : 5&lt;/div&gt;" style="whiteSpace=wrap;html=1;aspect=fixed;" parent="1" vertex="1">
          <mxGeometry x="400" y="480" width="80" height="80" as="geometry" />
        </mxCell>
        <mxCell id="TOVer-EQaKdzY2mr5Bsl-15" value="Pak&lt;div&gt;Sumono&lt;/div&gt;&lt;div&gt;ID : 8&lt;/div&gt;" style="whiteSpace=wrap;html=1;aspect=fixed;" parent="1" vertex="1">
          <mxGeometry x="650" y="470" width="80" height="80" as="geometry" />
        </mxCell>
        <mxCell id="TOVer-EQaKdzY2mr5Bsl-16" value="" style="endArrow=none;html=1;rounded=0;entryX=0.25;entryY=1;entryDx=0;entryDy=0;" parent="1" source="TOVer-EQaKdzY2mr5Bsl-7" target="TOVer-EQaKdzY2mr5Bsl-4" edge="1">
          <mxGeometry width="50" height="50" relative="1" as="geometry">
            <mxPoint x="230" y="350" as="sourcePoint" />
            <mxPoint x="280" y="300" as="targetPoint" />
          </mxGeometry>
        </mxCell>
        <mxCell id="TOVer-EQaKdzY2mr5Bsl-17" value="" style="endArrow=none;html=1;rounded=0;exitX=0;exitY=0.75;exitDx=0;exitDy=0;" parent="1" source="s2pgU0iyRGViIAJ1WeOT-24" target="TOVer-EQaKdzY2mr5Bsl-4" edge="1">
          <mxGeometry width="50" height="50" relative="1" as="geometry">
            <mxPoint x="230" y="350" as="sourcePoint" />
            <mxPoint x="280" y="300" as="targetPoint" />
          </mxGeometry>
        </mxCell>
        <mxCell id="TOVer-EQaKdzY2mr5Bsl-18" value="" style="endArrow=none;html=1;rounded=0;" parent="1" source="s2pgU0iyRGViIAJ1WeOT-18" target="TOVer-EQaKdzY2mr5Bsl-7" edge="1">
          <mxGeometry width="50" height="50" relative="1" as="geometry">
            <mxPoint x="230" y="350" as="sourcePoint" />
            <mxPoint x="280" y="300" as="targetPoint" />
          </mxGeometry>
        </mxCell>
        <mxCell id="TOVer-EQaKdzY2mr5Bsl-21" value="" style="endArrow=none;html=1;rounded=0;" parent="1" source="s2pgU0iyRGViIAJ1WeOT-8" target="TOVer-EQaKdzY2mr5Bsl-7" edge="1">
          <mxGeometry width="50" height="50" relative="1" as="geometry">
            <mxPoint x="30" y="460" as="sourcePoint" />
            <mxPoint x="80" y="410" as="targetPoint" />
          </mxGeometry>
        </mxCell>
        <mxCell id="TOVer-EQaKdzY2mr5Bsl-22" value="" style="endArrow=none;html=1;rounded=0;" parent="1" source="TOVer-EQaKdzY2mr5Bsl-13" target="TOVer-EQaKdzY2mr5Bsl-7" edge="1">
          <mxGeometry width="50" height="50" relative="1" as="geometry">
            <mxPoint x="30" y="460" as="sourcePoint" />
            <mxPoint x="80" y="410" as="targetPoint" />
          </mxGeometry>
        </mxCell>
        <mxCell id="TOVer-EQaKdzY2mr5Bsl-23" value="" style="endArrow=none;html=1;rounded=0;" parent="1" source="TOVer-EQaKdzY2mr5Bsl-13" target="TOVer-EQaKdzY2mr5Bsl-3" edge="1">
          <mxGeometry width="50" height="50" relative="1" as="geometry">
            <mxPoint x="30" y="330" as="sourcePoint" />
            <mxPoint x="80" y="280" as="targetPoint" />
          </mxGeometry>
        </mxCell>
        <mxCell id="TOVer-EQaKdzY2mr5Bsl-25" value="" style="endArrow=none;html=1;rounded=0;" parent="1" source="s2pgU0iyRGViIAJ1WeOT-34" target="TOVer-EQaKdzY2mr5Bsl-2" edge="1">
          <mxGeometry width="50" height="50" relative="1" as="geometry">
            <mxPoint x="30" y="330" as="sourcePoint" />
            <mxPoint x="80" y="280" as="targetPoint" />
          </mxGeometry>
        </mxCell>
        <mxCell id="TOVer-EQaKdzY2mr5Bsl-26" value="" style="endArrow=none;html=1;rounded=0;" parent="1" source="s2pgU0iyRGViIAJ1WeOT-30" target="TOVer-EQaKdzY2mr5Bsl-2" edge="1">
          <mxGeometry width="50" height="50" relative="1" as="geometry">
            <mxPoint x="30" y="330" as="sourcePoint" />
            <mxPoint x="80" y="280" as="targetPoint" />
          </mxGeometry>
        </mxCell>
        <mxCell id="TOVer-EQaKdzY2mr5Bsl-27" value="" style="endArrow=none;html=1;rounded=0;" parent="1" source="TOVer-EQaKdzY2mr5Bsl-6" target="TOVer-EQaKdzY2mr5Bsl-13" edge="1">
          <mxGeometry width="50" height="50" relative="1" as="geometry">
            <mxPoint x="30" y="330" as="sourcePoint" />
            <mxPoint x="80" y="280" as="targetPoint" />
          </mxGeometry>
        </mxCell>
        <mxCell id="TOVer-EQaKdzY2mr5Bsl-28" value="" style="endArrow=none;html=1;rounded=0;" parent="1" source="s2pgU0iyRGViIAJ1WeOT-37" target="TOVer-EQaKdzY2mr5Bsl-3" edge="1">
          <mxGeometry width="50" height="50" relative="1" as="geometry">
            <mxPoint x="30" y="330" as="sourcePoint" />
            <mxPoint x="80" y="280" as="targetPoint" />
          </mxGeometry>
        </mxCell>
        <mxCell id="TOVer-EQaKdzY2mr5Bsl-29" value="" style="endArrow=none;html=1;rounded=0;entryX=0.75;entryY=0;entryDx=0;entryDy=0;" parent="1" source="s2pgU0iyRGViIAJ1WeOT-41" target="TOVer-EQaKdzY2mr5Bsl-6" edge="1">
          <mxGeometry width="50" height="50" relative="1" as="geometry">
            <mxPoint x="30" y="330" as="sourcePoint" />
            <mxPoint x="80" y="280" as="targetPoint" />
          </mxGeometry>
        </mxCell>
        <mxCell id="TOVer-EQaKdzY2mr5Bsl-32" value="" style="endArrow=none;html=1;rounded=0;" parent="1" source="TOVer-EQaKdzY2mr5Bsl-12" target="TOVer-EQaKdzY2mr5Bsl-10" edge="1">
          <mxGeometry width="50" height="50" relative="1" as="geometry">
            <mxPoint x="30" y="330" as="sourcePoint" />
            <mxPoint x="80" y="280" as="targetPoint" />
          </mxGeometry>
        </mxCell>
        <mxCell id="TOVer-EQaKdzY2mr5Bsl-33" value="" style="endArrow=none;html=1;rounded=0;" parent="1" source="TOVer-EQaKdzY2mr5Bsl-12" target="TOVer-EQaKdzY2mr5Bsl-8" edge="1">
          <mxGeometry width="50" height="50" relative="1" as="geometry">
            <mxPoint x="30" y="330" as="sourcePoint" />
            <mxPoint x="80" y="280" as="targetPoint" />
          </mxGeometry>
        </mxCell>
        <mxCell id="TOVer-EQaKdzY2mr5Bsl-34" value="" style="endArrow=none;html=1;rounded=0;" parent="1" source="TOVer-EQaKdzY2mr5Bsl-4" target="TOVer-EQaKdzY2mr5Bsl-15" edge="1">
          <mxGeometry width="50" height="50" relative="1" as="geometry">
            <mxPoint x="200" y="360" as="sourcePoint" />
            <mxPoint x="250" y="310" as="targetPoint" />
          </mxGeometry>
        </mxCell>
        <mxCell id="TOVer-EQaKdzY2mr5Bsl-35" value="" style="endArrow=none;html=1;rounded=0;" parent="1" source="s2pgU0iyRGViIAJ1WeOT-26" target="TOVer-EQaKdzY2mr5Bsl-9" edge="1">
          <mxGeometry width="50" height="50" relative="1" as="geometry">
            <mxPoint x="200" y="290" as="sourcePoint" />
            <mxPoint x="250" y="240" as="targetPoint" />
          </mxGeometry>
        </mxCell>
        <mxCell id="TOVer-EQaKdzY2mr5Bsl-36" value="Disclaimer:&lt;div&gt;Nama-nama yang disebutkan dalam contoh ini sepenuhnya bersifat fiktif dan hanya digunakan untuk tujuan ilustrasi. Kesamaan dengan individu nyata, baik yang masih hidup maupun telah meninggal dunia, adalah murni kebetulan. Nama-nama ini tidak dimaksudkan untuk mengejek, menyinggung, atau mewakili orang tertentu di Indonesia atau di tempat lain. Jika terdapat kesamaan yang tidak disengaja, kami mohon maaf sebesar-besarnya.&lt;/div&gt;" style="rounded=0;whiteSpace=wrap;html=1;fontSize=12;" parent="1" vertex="1">
          <mxGeometry x="-510" y="600" width="1250" height="80" as="geometry" />
        </mxCell>
        <mxCell id="s2pgU0iyRGViIAJ1WeOT-1" value="" style="endArrow=none;html=1;rounded=0;entryX=1;entryY=0.75;entryDx=0;entryDy=0;" parent="1" source="TOVer-EQaKdzY2mr5Bsl-7" target="TOVer-EQaKdzY2mr5Bsl-3" edge="1">
          <mxGeometry width="50" height="50" relative="1" as="geometry">
            <mxPoint x="-10" y="370" as="sourcePoint" />
            <mxPoint x="40" y="320" as="targetPoint" />
          </mxGeometry>
        </mxCell>
        <mxCell id="s2pgU0iyRGViIAJ1WeOT-2" value="" style="endArrow=none;html=1;rounded=0;" parent="1" source="s2pgU0iyRGViIAJ1WeOT-39" target="TOVer-EQaKdzY2mr5Bsl-13" edge="1">
          <mxGeometry width="50" height="50" relative="1" as="geometry">
            <mxPoint x="-10" y="370" as="sourcePoint" />
            <mxPoint x="40" y="320" as="targetPoint" />
          </mxGeometry>
        </mxCell>
        <mxCell id="s2pgU0iyRGViIAJ1WeOT-3" value="" style="endArrow=none;html=1;rounded=0;" parent="1" source="TOVer-EQaKdzY2mr5Bsl-12" target="TOVer-EQaKdzY2mr5Bsl-6" edge="1">
          <mxGeometry width="50" height="50" relative="1" as="geometry">
            <mxPoint x="-10" y="370" as="sourcePoint" />
            <mxPoint x="40" y="320" as="targetPoint" />
          </mxGeometry>
        </mxCell>
        <mxCell id="s2pgU0iyRGViIAJ1WeOT-5" value="" style="endArrow=none;html=1;rounded=0;" parent="1" source="s2pgU0iyRGViIAJ1WeOT-27" target="TOVer-EQaKdzY2mr5Bsl-15" edge="1">
          <mxGeometry width="50" height="50" relative="1" as="geometry">
            <mxPoint x="-10" y="370" as="sourcePoint" />
            <mxPoint x="40" y="320" as="targetPoint" />
          </mxGeometry>
        </mxCell>
        <mxCell id="s2pgU0iyRGViIAJ1WeOT-6" value="" style="endArrow=none;html=1;rounded=0;entryX=0;entryY=0.5;entryDx=0;entryDy=0;" parent="1" source="s2pgU0iyRGViIAJ1WeOT-32" target="TOVer-EQaKdzY2mr5Bsl-11" edge="1">
          <mxGeometry width="50" height="50" relative="1" as="geometry">
            <mxPoint x="-10" y="370" as="sourcePoint" />
            <mxPoint x="40" y="320" as="targetPoint" />
          </mxGeometry>
        </mxCell>
        <mxCell id="s2pgU0iyRGViIAJ1WeOT-7" value="" style="endArrow=none;html=1;rounded=0;" parent="1" source="s2pgU0iyRGViIAJ1WeOT-22" target="TOVer-EQaKdzY2mr5Bsl-15" edge="1">
          <mxGeometry width="50" height="50" relative="1" as="geometry">
            <mxPoint x="-10" y="370" as="sourcePoint" />
            <mxPoint x="40" y="320" as="targetPoint" />
          </mxGeometry>
        </mxCell>
        <mxCell id="s2pgU0iyRGViIAJ1WeOT-14" value="" style="endArrow=none;html=1;rounded=0;" parent="1" source="TOVer-EQaKdzY2mr5Bsl-2" target="s2pgU0iyRGViIAJ1WeOT-8" edge="1">
          <mxGeometry width="50" height="50" relative="1" as="geometry">
            <mxPoint x="133" y="300" as="sourcePoint" />
            <mxPoint x="57" y="480" as="targetPoint" />
          </mxGeometry>
        </mxCell>
        <mxCell id="s2pgU0iyRGViIAJ1WeOT-8" value="5" style="rounded=0;whiteSpace=wrap;html=1;rotation=0;" parent="1" vertex="1">
          <mxGeometry x="80" y="350" width="55" height="20" as="geometry" />
        </mxCell>
        <mxCell id="s2pgU0iyRGViIAJ1WeOT-16" value="5" style="rounded=0;whiteSpace=wrap;html=1;rotation=0;" parent="1" vertex="1">
          <mxGeometry x="-115" y="510" width="55" height="20" as="geometry" />
        </mxCell>
        <mxCell id="s2pgU0iyRGViIAJ1WeOT-17" value="7" style="rounded=0;whiteSpace=wrap;html=1;rotation=0;" parent="1" vertex="1">
          <mxGeometry y="320" width="55" height="20" as="geometry" />
        </mxCell>
        <mxCell id="s2pgU0iyRGViIAJ1WeOT-19" value="" style="endArrow=none;html=1;rounded=0;" parent="1" source="TOVer-EQaKdzY2mr5Bsl-14" target="s2pgU0iyRGViIAJ1WeOT-18" edge="1">
          <mxGeometry width="50" height="50" relative="1" as="geometry">
            <mxPoint x="360" y="520" as="sourcePoint" />
            <mxPoint x="80" y="520" as="targetPoint" />
          </mxGeometry>
        </mxCell>
        <mxCell id="s2pgU0iyRGViIAJ1WeOT-18" value="6" style="rounded=0;whiteSpace=wrap;html=1;rotation=0;" parent="1" vertex="1">
          <mxGeometry x="200" y="510" width="55" height="20" as="geometry" />
        </mxCell>
        <mxCell id="s2pgU0iyRGViIAJ1WeOT-20" value="4" style="rounded=0;whiteSpace=wrap;html=1;rotation=0;" parent="1" vertex="1">
          <mxGeometry x="160" y="450" width="55" height="20" as="geometry" />
        </mxCell>
        <mxCell id="s2pgU0iyRGViIAJ1WeOT-21" value="6" style="rounded=0;whiteSpace=wrap;html=1;rotation=0;" parent="1" vertex="1">
          <mxGeometry x="440" y="430" width="55" height="20" as="geometry" />
        </mxCell>
        <mxCell id="s2pgU0iyRGViIAJ1WeOT-23" value="" style="endArrow=none;html=1;rounded=0;" parent="1" source="TOVer-EQaKdzY2mr5Bsl-14" target="s2pgU0iyRGViIAJ1WeOT-22" edge="1">
          <mxGeometry width="50" height="50" relative="1" as="geometry">
            <mxPoint x="480" y="518" as="sourcePoint" />
            <mxPoint x="650" y="512" as="targetPoint" />
          </mxGeometry>
        </mxCell>
        <mxCell id="s2pgU0iyRGViIAJ1WeOT-22" value="3" style="rounded=0;whiteSpace=wrap;html=1;rotation=0;" parent="1" vertex="1">
          <mxGeometry x="522.5" y="510" width="55" height="20" as="geometry" />
        </mxCell>
        <mxCell id="s2pgU0iyRGViIAJ1WeOT-25" value="" style="endArrow=none;html=1;rounded=0;exitX=0;exitY=0.75;exitDx=0;exitDy=0;" parent="1" source="TOVer-EQaKdzY2mr5Bsl-11" target="s2pgU0iyRGViIAJ1WeOT-24" edge="1">
          <mxGeometry width="50" height="50" relative="1" as="geometry">
            <mxPoint x="640" y="170" as="sourcePoint" />
            <mxPoint x="330" y="365" as="targetPoint" />
          </mxGeometry>
        </mxCell>
        <mxCell id="s2pgU0iyRGViIAJ1WeOT-24" value="6" style="rounded=0;whiteSpace=wrap;html=1;rotation=0;" parent="1" vertex="1">
          <mxGeometry x="440" y="270" width="55" height="20" as="geometry" />
        </mxCell>
        <mxCell id="s2pgU0iyRGViIAJ1WeOT-28" value="" style="endArrow=none;html=1;rounded=0;" parent="1" source="TOVer-EQaKdzY2mr5Bsl-9" target="s2pgU0iyRGViIAJ1WeOT-27" edge="1">
          <mxGeometry width="50" height="50" relative="1" as="geometry">
            <mxPoint x="581" y="370" as="sourcePoint" />
            <mxPoint x="659" y="470" as="targetPoint" />
          </mxGeometry>
        </mxCell>
        <mxCell id="s2pgU0iyRGViIAJ1WeOT-27" value="4" style="rounded=0;whiteSpace=wrap;html=1;rotation=0;" parent="1" vertex="1">
          <mxGeometry x="595" y="410" width="55" height="20" as="geometry" />
        </mxCell>
        <mxCell id="s2pgU0iyRGViIAJ1WeOT-29" value="" style="endArrow=none;html=1;rounded=0;" parent="1" source="TOVer-EQaKdzY2mr5Bsl-11" target="s2pgU0iyRGViIAJ1WeOT-26" edge="1">
          <mxGeometry width="50" height="50" relative="1" as="geometry">
            <mxPoint x="651" y="190" as="sourcePoint" />
            <mxPoint x="579" y="290" as="targetPoint" />
          </mxGeometry>
        </mxCell>
        <mxCell id="s2pgU0iyRGViIAJ1WeOT-26" value="4" style="rounded=0;whiteSpace=wrap;html=1;rotation=0;" parent="1" vertex="1">
          <mxGeometry x="585" y="240" width="55" height="20" as="geometry" />
        </mxCell>
        <mxCell id="s2pgU0iyRGViIAJ1WeOT-31" value="" style="endArrow=none;html=1;rounded=0;" parent="1" source="TOVer-EQaKdzY2mr5Bsl-5" target="s2pgU0iyRGViIAJ1WeOT-30" edge="1">
          <mxGeometry width="50" height="50" relative="1" as="geometry">
            <mxPoint x="260" y="179" as="sourcePoint" />
            <mxPoint x="190" y="231" as="targetPoint" />
          </mxGeometry>
        </mxCell>
        <mxCell id="s2pgU0iyRGViIAJ1WeOT-30" value="2" style="rounded=0;whiteSpace=wrap;html=1;rotation=0;" parent="1" vertex="1">
          <mxGeometry x="205" y="200" width="55" height="20" as="geometry" />
        </mxCell>
        <mxCell id="s2pgU0iyRGViIAJ1WeOT-33" value="" style="endArrow=none;html=1;rounded=0;entryX=0;entryY=0.5;entryDx=0;entryDy=0;" parent="1" source="TOVer-EQaKdzY2mr5Bsl-5" target="s2pgU0iyRGViIAJ1WeOT-32" edge="1">
          <mxGeometry width="50" height="50" relative="1" as="geometry">
            <mxPoint x="340" y="150" as="sourcePoint" />
            <mxPoint x="640" y="150" as="targetPoint" />
          </mxGeometry>
        </mxCell>
        <mxCell id="s2pgU0iyRGViIAJ1WeOT-32" value="6" style="rounded=0;whiteSpace=wrap;html=1;rotation=0;" parent="1" vertex="1">
          <mxGeometry x="440" y="140" width="55" height="20" as="geometry" />
        </mxCell>
        <mxCell id="s2pgU0iyRGViIAJ1WeOT-35" value="" style="endArrow=none;html=1;rounded=0;" parent="1" source="TOVer-EQaKdzY2mr5Bsl-3" target="s2pgU0iyRGViIAJ1WeOT-34" edge="1">
          <mxGeometry width="50" height="50" relative="1" as="geometry">
            <mxPoint x="20" y="184" as="sourcePoint" />
            <mxPoint x="110" y="236" as="targetPoint" />
          </mxGeometry>
        </mxCell>
        <mxCell id="s2pgU0iyRGViIAJ1WeOT-34" value="3" style="rounded=0;whiteSpace=wrap;html=1;rotation=0;" parent="1" vertex="1">
          <mxGeometry x="40" y="200" width="55" height="20" as="geometry" />
        </mxCell>
        <mxCell id="s2pgU0iyRGViIAJ1WeOT-36" value="7" style="rounded=0;whiteSpace=wrap;html=1;rotation=0;" parent="1" vertex="1">
          <mxGeometry x="-140" y="320" width="55" height="20" as="geometry" />
        </mxCell>
        <mxCell id="s2pgU0iyRGViIAJ1WeOT-38" value="" style="endArrow=none;html=1;rounded=0;" parent="1" source="TOVer-EQaKdzY2mr5Bsl-8" target="s2pgU0iyRGViIAJ1WeOT-37" edge="1">
          <mxGeometry width="50" height="50" relative="1" as="geometry">
            <mxPoint x="-170" y="215" as="sourcePoint" />
            <mxPoint x="-60" y="175" as="targetPoint" />
          </mxGeometry>
        </mxCell>
        <mxCell id="s2pgU0iyRGViIAJ1WeOT-37" value="4" style="rounded=0;whiteSpace=wrap;html=1;rotation=0;" parent="1" vertex="1">
          <mxGeometry x="-140" y="180" width="55" height="20" as="geometry" />
        </mxCell>
        <mxCell id="s2pgU0iyRGViIAJ1WeOT-40" value="" style="endArrow=none;html=1;rounded=0;" parent="1" source="TOVer-EQaKdzY2mr5Bsl-8" target="s2pgU0iyRGViIAJ1WeOT-39" edge="1">
          <mxGeometry width="50" height="50" relative="1" as="geometry">
            <mxPoint x="-211" y="270" as="sourcePoint" />
            <mxPoint x="-219" y="480" as="targetPoint" />
          </mxGeometry>
        </mxCell>
        <mxCell id="s2pgU0iyRGViIAJ1WeOT-39" value="5" style="rounded=0;whiteSpace=wrap;html=1;rotation=0;" parent="1" vertex="1">
          <mxGeometry x="-237.5" y="340" width="55" height="20" as="geometry" />
        </mxCell>
        <mxCell id="s2pgU0iyRGViIAJ1WeOT-42" value="" style="endArrow=none;html=1;rounded=0;entryX=0.75;entryY=0;entryDx=0;entryDy=0;" parent="1" source="TOVer-EQaKdzY2mr5Bsl-8" target="s2pgU0iyRGViIAJ1WeOT-41" edge="1">
          <mxGeometry width="50" height="50" relative="1" as="geometry">
            <mxPoint x="-248" y="270" as="sourcePoint" />
            <mxPoint x="-450" y="480" as="targetPoint" />
          </mxGeometry>
        </mxCell>
        <mxCell id="s2pgU0iyRGViIAJ1WeOT-41" value="6" style="rounded=0;whiteSpace=wrap;html=1;rotation=0;" parent="1" vertex="1">
          <mxGeometry x="-360" y="350" width="55" height="20" as="geometry" />
        </mxCell>
        <mxCell id="s2pgU0iyRGViIAJ1WeOT-43" value="5" style="rounded=0;whiteSpace=wrap;html=1;rotation=0;" parent="1" vertex="1">
          <mxGeometry x="-400" y="290" width="55" height="20" as="geometry" />
        </mxCell>
        <mxCell id="s2pgU0iyRGViIAJ1WeOT-48" value="" style="endArrow=none;html=1;rounded=0;" parent="1" source="s2pgU0iyRGViIAJ1WeOT-44" target="TOVer-EQaKdzY2mr5Bsl-8" edge="1">
          <mxGeometry width="50" height="50" relative="1" as="geometry">
            <mxPoint x="-430" y="260" as="sourcePoint" />
            <mxPoint x="-380" y="210" as="targetPoint" />
          </mxGeometry>
        </mxCell>
        <mxCell id="s2pgU0iyRGViIAJ1WeOT-49" value="" style="endArrow=none;html=1;rounded=0;" parent="1" source="TOVer-EQaKdzY2mr5Bsl-10" target="s2pgU0iyRGViIAJ1WeOT-44" edge="1">
          <mxGeometry width="50" height="50" relative="1" as="geometry">
            <mxPoint x="-430" y="171" as="sourcePoint" />
            <mxPoint x="-250" y="219" as="targetPoint" />
          </mxGeometry>
        </mxCell>
        <mxCell id="s2pgU0iyRGViIAJ1WeOT-44" value="5" style="rounded=0;whiteSpace=wrap;html=1;rotation=0;" parent="1" vertex="1">
          <mxGeometry x="-370" y="180" width="55" height="20" as="geometry" />
        </mxCell>
        <mxCell id="StoSvq-MfT0LFPrUbOFN-1" value="4" style="rounded=0;whiteSpace=wrap;html=1;rotation=0;" parent="1" vertex="1">
          <mxGeometry x="-497.5" y="250" width="55" height="20" as="geometry" />
        </mxCell>
        <mxCell id="StoSvq-MfT0LFPrUbOFN-2" value="4" style="rounded=0;whiteSpace=wrap;html=1;rotation=0;" parent="1" vertex="1">
          <mxGeometry x="-497.5" y="420" width="55" height="20" as="geometry" />
        </mxCell>
        <mxCell id="StoSvq-MfT0LFPrUbOFN-3" value="5" style="rounded=0;whiteSpace=wrap;html=1;rotation=0;" parent="1" vertex="1">
          <mxGeometry x="-360" y="510" width="55" height="20" as="geometry" />
        </mxCell>
      </root>
    </mxGraphModel>
  </diagram>
</mxfile>
